<?xml version="1.0" encoding="utf-8" standalone="no"?>
<!DOCTYPE svg PUBLIC "-//W3C//DTD SVG 1.1//EN"
  "http://www.w3.org/Graphics/SVG/1.1/DTD/svg11.dtd">
<!-- Created with matplotlib (https://matplotlib.org/) -->
<svg height="345.6pt" version="1.1" viewBox="0 0 460.8 345.6" width="460.8pt" xmlns="http://www.w3.org/2000/svg" xmlns:xlink="http://www.w3.org/1999/xlink">
 <defs>
  <style type="text/css">
*{stroke-linecap:butt;stroke-linejoin:round;}
  </style>
 </defs>
 <g id="figure_1">
  <g id="patch_1">
   <path d="M 0 345.6 
L 460.8 345.6 
L 460.8 0 
L 0 0 
z
" style="fill:#ffffff;"/>
  </g>
  <g id="axes_1">
   <g id="patch_2">
    <path d="M 57.6 307.584 
L 414.72 307.584 
L 414.72 41.472 
L 57.6 41.472 
z
" style="fill:#ffffff;"/>
   </g>
   <g id="matplotlib.axis_1">
    <g id="xtick_1">
     <g id="line2d_1">
      <path clip-path="url(#p6fe52c182c)" d="M 73.832727 307.584 
L 73.832727 41.472 
" style="fill:none;stroke:#b0b0b0;stroke-linecap:square;stroke-width:0.8;"/>
     </g>
     <g id="line2d_2">
      <defs>
       <path d="M 0 0 
L 0 3.5 
" id="mf29ea23fea" style="stroke:#000000;stroke-width:0.8;"/>
      </defs>
      <g>
       <use style="stroke:#000000;stroke-width:0.8;" x="73.832727" xlink:href="#mf29ea23fea" y="307.584"/>
      </g>
     </g>
     <g id="text_1">
      <!-- 0 -->
      <defs>
       <path d="M 31.78125 66.40625 
Q 24.171875 66.40625 20.328125 58.90625 
Q 16.5 51.421875 16.5 36.375 
Q 16.5 21.390625 20.328125 13.890625 
Q 24.171875 6.390625 31.78125 6.390625 
Q 39.453125 6.390625 43.28125 13.890625 
Q 47.125 21.390625 47.125 36.375 
Q 47.125 51.421875 43.28125 58.90625 
Q 39.453125 66.40625 31.78125 66.40625 
z
M 31.78125 74.21875 
Q 44.046875 74.21875 50.515625 64.515625 
Q 56.984375 54.828125 56.984375 36.375 
Q 56.984375 17.96875 50.515625 8.265625 
Q 44.046875 -1.421875 31.78125 -1.421875 
Q 19.53125 -1.421875 13.0625 8.265625 
Q 6.59375 17.96875 6.59375 36.375 
Q 6.59375 54.828125 13.0625 64.515625 
Q 19.53125 74.21875 31.78125 74.21875 
z
" id="DejaVuSans-48"/>
      </defs>
      <g transform="translate(70.651477 322.182437)scale(0.1 -0.1)">
       <use xlink:href="#DejaVuSans-48"/>
      </g>
     </g>
    </g>
    <g id="xtick_2">
     <g id="line2d_3">
      <path clip-path="url(#p6fe52c182c)" d="M 138.763636 307.584 
L 138.763636 41.472 
" style="fill:none;stroke:#b0b0b0;stroke-linecap:square;stroke-width:0.8;"/>
     </g>
     <g id="line2d_4">
      <g>
       <use style="stroke:#000000;stroke-width:0.8;" x="138.763636" xlink:href="#mf29ea23fea" y="307.584"/>
      </g>
     </g>
     <g id="text_2">
      <!-- 2 -->
      <defs>
       <path d="M 19.1875 8.296875 
L 53.609375 8.296875 
L 53.609375 0 
L 7.328125 0 
L 7.328125 8.296875 
Q 12.9375 14.109375 22.625 23.890625 
Q 32.328125 33.6875 34.8125 36.53125 
Q 39.546875 41.84375 41.421875 45.53125 
Q 43.3125 49.21875 43.3125 52.78125 
Q 43.3125 58.59375 39.234375 62.25 
Q 35.15625 65.921875 28.609375 65.921875 
Q 23.96875 65.921875 18.8125 64.3125 
Q 13.671875 62.703125 7.8125 59.421875 
L 7.8125 69.390625 
Q 13.765625 71.78125 18.9375 73 
Q 24.125 74.21875 28.421875 74.21875 
Q 39.75 74.21875 46.484375 68.546875 
Q 53.21875 62.890625 53.21875 53.421875 
Q 53.21875 48.921875 51.53125 44.890625 
Q 49.859375 40.875 45.40625 35.40625 
Q 44.1875 33.984375 37.640625 27.21875 
Q 31.109375 20.453125 19.1875 8.296875 
z
" id="DejaVuSans-50"/>
      </defs>
      <g transform="translate(135.582386 322.182437)scale(0.1 -0.1)">
       <use xlink:href="#DejaVuSans-50"/>
      </g>
     </g>
    </g>
    <g id="xtick_3">
     <g id="line2d_5">
      <path clip-path="url(#p6fe52c182c)" d="M 203.694545 307.584 
L 203.694545 41.472 
" style="fill:none;stroke:#b0b0b0;stroke-linecap:square;stroke-width:0.8;"/>
     </g>
     <g id="line2d_6">
      <g>
       <use style="stroke:#000000;stroke-width:0.8;" x="203.694545" xlink:href="#mf29ea23fea" y="307.584"/>
      </g>
     </g>
     <g id="text_3">
      <!-- 4 -->
      <defs>
       <path d="M 37.796875 64.3125 
L 12.890625 25.390625 
L 37.796875 25.390625 
z
M 35.203125 72.90625 
L 47.609375 72.90625 
L 47.609375 25.390625 
L 58.015625 25.390625 
L 58.015625 17.1875 
L 47.609375 17.1875 
L 47.609375 0 
L 37.796875 0 
L 37.796875 17.1875 
L 4.890625 17.1875 
L 4.890625 26.703125 
z
" id="DejaVuSans-52"/>
      </defs>
      <g transform="translate(200.513295 322.182437)scale(0.1 -0.1)">
       <use xlink:href="#DejaVuSans-52"/>
      </g>
     </g>
    </g>
    <g id="xtick_4">
     <g id="line2d_7">
      <path clip-path="url(#p6fe52c182c)" d="M 268.625455 307.584 
L 268.625455 41.472 
" style="fill:none;stroke:#b0b0b0;stroke-linecap:square;stroke-width:0.8;"/>
     </g>
     <g id="line2d_8">
      <g>
       <use style="stroke:#000000;stroke-width:0.8;" x="268.625455" xlink:href="#mf29ea23fea" y="307.584"/>
      </g>
     </g>
     <g id="text_4">
      <!-- 6 -->
      <defs>
       <path d="M 33.015625 40.375 
Q 26.375 40.375 22.484375 35.828125 
Q 18.609375 31.296875 18.609375 23.390625 
Q 18.609375 15.53125 22.484375 10.953125 
Q 26.375 6.390625 33.015625 6.390625 
Q 39.65625 6.390625 43.53125 10.953125 
Q 47.40625 15.53125 47.40625 23.390625 
Q 47.40625 31.296875 43.53125 35.828125 
Q 39.65625 40.375 33.015625 40.375 
z
M 52.59375 71.296875 
L 52.59375 62.3125 
Q 48.875 64.0625 45.09375 64.984375 
Q 41.3125 65.921875 37.59375 65.921875 
Q 27.828125 65.921875 22.671875 59.328125 
Q 17.53125 52.734375 16.796875 39.40625 
Q 19.671875 43.65625 24.015625 45.921875 
Q 28.375 48.1875 33.59375 48.1875 
Q 44.578125 48.1875 50.953125 41.515625 
Q 57.328125 34.859375 57.328125 23.390625 
Q 57.328125 12.15625 50.6875 5.359375 
Q 44.046875 -1.421875 33.015625 -1.421875 
Q 20.359375 -1.421875 13.671875 8.265625 
Q 6.984375 17.96875 6.984375 36.375 
Q 6.984375 53.65625 15.1875 63.9375 
Q 23.390625 74.21875 37.203125 74.21875 
Q 40.921875 74.21875 44.703125 73.484375 
Q 48.484375 72.75 52.59375 71.296875 
z
" id="DejaVuSans-54"/>
      </defs>
      <g transform="translate(265.444205 322.182437)scale(0.1 -0.1)">
       <use xlink:href="#DejaVuSans-54"/>
      </g>
     </g>
    </g>
    <g id="xtick_5">
     <g id="line2d_9">
      <path clip-path="url(#p6fe52c182c)" d="M 333.556364 307.584 
L 333.556364 41.472 
" style="fill:none;stroke:#b0b0b0;stroke-linecap:square;stroke-width:0.8;"/>
     </g>
     <g id="line2d_10">
      <g>
       <use style="stroke:#000000;stroke-width:0.8;" x="333.556364" xlink:href="#mf29ea23fea" y="307.584"/>
      </g>
     </g>
     <g id="text_5">
      <!-- 8 -->
      <defs>
       <path d="M 31.78125 34.625 
Q 24.75 34.625 20.71875 30.859375 
Q 16.703125 27.09375 16.703125 20.515625 
Q 16.703125 13.921875 20.71875 10.15625 
Q 24.75 6.390625 31.78125 6.390625 
Q 38.8125 6.390625 42.859375 10.171875 
Q 46.921875 13.96875 46.921875 20.515625 
Q 46.921875 27.09375 42.890625 30.859375 
Q 38.875 34.625 31.78125 34.625 
z
M 21.921875 38.8125 
Q 15.578125 40.375 12.03125 44.71875 
Q 8.5 49.078125 8.5 55.328125 
Q 8.5 64.0625 14.71875 69.140625 
Q 20.953125 74.21875 31.78125 74.21875 
Q 42.671875 74.21875 48.875 69.140625 
Q 55.078125 64.0625 55.078125 55.328125 
Q 55.078125 49.078125 51.53125 44.71875 
Q 48 40.375 41.703125 38.8125 
Q 48.828125 37.15625 52.796875 32.3125 
Q 56.78125 27.484375 56.78125 20.515625 
Q 56.78125 9.90625 50.3125 4.234375 
Q 43.84375 -1.421875 31.78125 -1.421875 
Q 19.734375 -1.421875 13.25 4.234375 
Q 6.78125 9.90625 6.78125 20.515625 
Q 6.78125 27.484375 10.78125 32.3125 
Q 14.796875 37.15625 21.921875 38.8125 
z
M 18.3125 54.390625 
Q 18.3125 48.734375 21.84375 45.5625 
Q 25.390625 42.390625 31.78125 42.390625 
Q 38.140625 42.390625 41.71875 45.5625 
Q 45.3125 48.734375 45.3125 54.390625 
Q 45.3125 60.0625 41.71875 63.234375 
Q 38.140625 66.40625 31.78125 66.40625 
Q 25.390625 66.40625 21.84375 63.234375 
Q 18.3125 60.0625 18.3125 54.390625 
z
" id="DejaVuSans-56"/>
      </defs>
      <g transform="translate(330.375114 322.182437)scale(0.1 -0.1)">
       <use xlink:href="#DejaVuSans-56"/>
      </g>
     </g>
    </g>
    <g id="xtick_6">
     <g id="line2d_11">
      <path clip-path="url(#p6fe52c182c)" d="M 398.487273 307.584 
L 398.487273 41.472 
" style="fill:none;stroke:#b0b0b0;stroke-linecap:square;stroke-width:0.8;"/>
     </g>
     <g id="line2d_12">
      <g>
       <use style="stroke:#000000;stroke-width:0.8;" x="398.487273" xlink:href="#mf29ea23fea" y="307.584"/>
      </g>
     </g>
     <g id="text_6">
      <!-- 10 -->
      <defs>
       <path d="M 12.40625 8.296875 
L 28.515625 8.296875 
L 28.515625 63.921875 
L 10.984375 60.40625 
L 10.984375 69.390625 
L 28.421875 72.90625 
L 38.28125 72.90625 
L 38.28125 8.296875 
L 54.390625 8.296875 
L 54.390625 0 
L 12.40625 0 
z
" id="DejaVuSans-49"/>
      </defs>
      <g transform="translate(392.124773 322.182437)scale(0.1 -0.1)">
       <use xlink:href="#DejaVuSans-49"/>
       <use x="63.623047" xlink:href="#DejaVuSans-48"/>
      </g>
     </g>
    </g>
    <g id="text_7">
     <!-- Tiempo [s] -->
     <defs>
      <path d="M -0.296875 72.90625 
L 61.375 72.90625 
L 61.375 64.59375 
L 35.5 64.59375 
L 35.5 0 
L 25.59375 0 
L 25.59375 64.59375 
L -0.296875 64.59375 
z
" id="DejaVuSans-84"/>
      <path d="M 9.421875 54.6875 
L 18.40625 54.6875 
L 18.40625 0 
L 9.421875 0 
z
M 9.421875 75.984375 
L 18.40625 75.984375 
L 18.40625 64.59375 
L 9.421875 64.59375 
z
" id="DejaVuSans-105"/>
      <path d="M 56.203125 29.59375 
L 56.203125 25.203125 
L 14.890625 25.203125 
Q 15.484375 15.921875 20.484375 11.0625 
Q 25.484375 6.203125 34.421875 6.203125 
Q 39.59375 6.203125 44.453125 7.46875 
Q 49.3125 8.734375 54.109375 11.28125 
L 54.109375 2.78125 
Q 49.265625 0.734375 44.1875 -0.34375 
Q 39.109375 -1.421875 33.890625 -1.421875 
Q 20.796875 -1.421875 13.15625 6.1875 
Q 5.515625 13.8125 5.515625 26.8125 
Q 5.515625 40.234375 12.765625 48.109375 
Q 20.015625 56 32.328125 56 
Q 43.359375 56 49.78125 48.890625 
Q 56.203125 41.796875 56.203125 29.59375 
z
M 47.21875 32.234375 
Q 47.125 39.59375 43.09375 43.984375 
Q 39.0625 48.390625 32.421875 48.390625 
Q 24.90625 48.390625 20.390625 44.140625 
Q 15.875 39.890625 15.1875 32.171875 
z
" id="DejaVuSans-101"/>
      <path d="M 52 44.1875 
Q 55.375 50.25 60.0625 53.125 
Q 64.75 56 71.09375 56 
Q 79.640625 56 84.28125 50.015625 
Q 88.921875 44.046875 88.921875 33.015625 
L 88.921875 0 
L 79.890625 0 
L 79.890625 32.71875 
Q 79.890625 40.578125 77.09375 44.375 
Q 74.3125 48.1875 68.609375 48.1875 
Q 61.625 48.1875 57.5625 43.546875 
Q 53.515625 38.921875 53.515625 30.90625 
L 53.515625 0 
L 44.484375 0 
L 44.484375 32.71875 
Q 44.484375 40.625 41.703125 44.40625 
Q 38.921875 48.1875 33.109375 48.1875 
Q 26.21875 48.1875 22.15625 43.53125 
Q 18.109375 38.875 18.109375 30.90625 
L 18.109375 0 
L 9.078125 0 
L 9.078125 54.6875 
L 18.109375 54.6875 
L 18.109375 46.1875 
Q 21.1875 51.21875 25.484375 53.609375 
Q 29.78125 56 35.6875 56 
Q 41.65625 56 45.828125 52.96875 
Q 50 49.953125 52 44.1875 
z
" id="DejaVuSans-109"/>
      <path d="M 18.109375 8.203125 
L 18.109375 -20.796875 
L 9.078125 -20.796875 
L 9.078125 54.6875 
L 18.109375 54.6875 
L 18.109375 46.390625 
Q 20.953125 51.265625 25.265625 53.625 
Q 29.59375 56 35.59375 56 
Q 45.5625 56 51.78125 48.09375 
Q 58.015625 40.1875 58.015625 27.296875 
Q 58.015625 14.40625 51.78125 6.484375 
Q 45.5625 -1.421875 35.59375 -1.421875 
Q 29.59375 -1.421875 25.265625 0.953125 
Q 20.953125 3.328125 18.109375 8.203125 
z
M 48.6875 27.296875 
Q 48.6875 37.203125 44.609375 42.84375 
Q 40.53125 48.484375 33.40625 48.484375 
Q 26.265625 48.484375 22.1875 42.84375 
Q 18.109375 37.203125 18.109375 27.296875 
Q 18.109375 17.390625 22.1875 11.75 
Q 26.265625 6.109375 33.40625 6.109375 
Q 40.53125 6.109375 44.609375 11.75 
Q 48.6875 17.390625 48.6875 27.296875 
z
" id="DejaVuSans-112"/>
      <path d="M 30.609375 48.390625 
Q 23.390625 48.390625 19.1875 42.75 
Q 14.984375 37.109375 14.984375 27.296875 
Q 14.984375 17.484375 19.15625 11.84375 
Q 23.34375 6.203125 30.609375 6.203125 
Q 37.796875 6.203125 41.984375 11.859375 
Q 46.1875 17.53125 46.1875 27.296875 
Q 46.1875 37.015625 41.984375 42.703125 
Q 37.796875 48.390625 30.609375 48.390625 
z
M 30.609375 56 
Q 42.328125 56 49.015625 48.375 
Q 55.71875 40.765625 55.71875 27.296875 
Q 55.71875 13.875 49.015625 6.21875 
Q 42.328125 -1.421875 30.609375 -1.421875 
Q 18.84375 -1.421875 12.171875 6.21875 
Q 5.515625 13.875 5.515625 27.296875 
Q 5.515625 40.765625 12.171875 48.375 
Q 18.84375 56 30.609375 56 
z
" id="DejaVuSans-111"/>
      <path id="DejaVuSans-32"/>
      <path d="M 8.59375 75.984375 
L 29.296875 75.984375 
L 29.296875 69 
L 17.578125 69 
L 17.578125 -6.203125 
L 29.296875 -6.203125 
L 29.296875 -13.1875 
L 8.59375 -13.1875 
z
" id="DejaVuSans-91"/>
      <path d="M 44.28125 53.078125 
L 44.28125 44.578125 
Q 40.484375 46.53125 36.375 47.5 
Q 32.28125 48.484375 27.875 48.484375 
Q 21.1875 48.484375 17.84375 46.4375 
Q 14.5 44.390625 14.5 40.28125 
Q 14.5 37.15625 16.890625 35.375 
Q 19.28125 33.59375 26.515625 31.984375 
L 29.59375 31.296875 
Q 39.15625 29.25 43.1875 25.515625 
Q 47.21875 21.78125 47.21875 15.09375 
Q 47.21875 7.46875 41.1875 3.015625 
Q 35.15625 -1.421875 24.609375 -1.421875 
Q 20.21875 -1.421875 15.453125 -0.5625 
Q 10.6875 0.296875 5.421875 2 
L 5.421875 11.28125 
Q 10.40625 8.6875 15.234375 7.390625 
Q 20.0625 6.109375 24.8125 6.109375 
Q 31.15625 6.109375 34.5625 8.28125 
Q 37.984375 10.453125 37.984375 14.40625 
Q 37.984375 18.0625 35.515625 20.015625 
Q 33.0625 21.96875 24.703125 23.78125 
L 21.578125 24.515625 
Q 13.234375 26.265625 9.515625 29.90625 
Q 5.8125 33.546875 5.8125 39.890625 
Q 5.8125 47.609375 11.28125 51.796875 
Q 16.75 56 26.8125 56 
Q 31.78125 56 36.171875 55.265625 
Q 40.578125 54.546875 44.28125 53.078125 
z
" id="DejaVuSans-115"/>
      <path d="M 30.421875 75.984375 
L 30.421875 -13.1875 
L 9.71875 -13.1875 
L 9.71875 -6.203125 
L 21.390625 -6.203125 
L 21.390625 69 
L 9.71875 69 
L 9.71875 75.984375 
z
" id="DejaVuSans-93"/>
     </defs>
     <g transform="translate(209.443594 335.860562)scale(0.1 -0.1)">
      <use xlink:href="#DejaVuSans-84"/>
      <use x="61.037109" xlink:href="#DejaVuSans-105"/>
      <use x="88.820312" xlink:href="#DejaVuSans-101"/>
      <use x="150.34375" xlink:href="#DejaVuSans-109"/>
      <use x="247.755859" xlink:href="#DejaVuSans-112"/>
      <use x="311.232422" xlink:href="#DejaVuSans-111"/>
      <use x="372.414062" xlink:href="#DejaVuSans-32"/>
      <use x="404.201172" xlink:href="#DejaVuSans-91"/>
      <use x="443.214844" xlink:href="#DejaVuSans-115"/>
      <use x="495.314453" xlink:href="#DejaVuSans-93"/>
     </g>
    </g>
   </g>
   <g id="matplotlib.axis_2">
    <g id="ytick_1">
     <g id="line2d_13">
      <path clip-path="url(#p6fe52c182c)" d="M 57.6 300.488227 
L 414.72 300.488227 
" style="fill:none;stroke:#b0b0b0;stroke-linecap:square;stroke-width:0.8;"/>
     </g>
     <g id="line2d_14">
      <defs>
       <path d="M 0 0 
L -3.5 0 
" id="mb5395775af" style="stroke:#000000;stroke-width:0.8;"/>
      </defs>
      <g>
       <use style="stroke:#000000;stroke-width:0.8;" x="57.6" xlink:href="#mb5395775af" y="300.488227"/>
      </g>
     </g>
     <g id="text_8">
      <!-- −20 -->
      <defs>
       <path d="M 10.59375 35.5 
L 73.1875 35.5 
L 73.1875 27.203125 
L 10.59375 27.203125 
z
" id="DejaVuSans-8722"/>
      </defs>
      <g transform="translate(29.495313 304.287446)scale(0.1 -0.1)">
       <use xlink:href="#DejaVuSans-8722"/>
       <use x="83.789062" xlink:href="#DejaVuSans-50"/>
       <use x="147.412109" xlink:href="#DejaVuSans-48"/>
      </g>
     </g>
    </g>
    <g id="ytick_2">
     <g id="line2d_15">
      <path clip-path="url(#p6fe52c182c)" d="M 57.6 270.769567 
L 414.72 270.769567 
" style="fill:none;stroke:#b0b0b0;stroke-linecap:square;stroke-width:0.8;"/>
     </g>
     <g id="line2d_16">
      <g>
       <use style="stroke:#000000;stroke-width:0.8;" x="57.6" xlink:href="#mb5395775af" y="270.769567"/>
      </g>
     </g>
     <g id="text_9">
      <!-- −15 -->
      <defs>
       <path d="M 10.796875 72.90625 
L 49.515625 72.90625 
L 49.515625 64.59375 
L 19.828125 64.59375 
L 19.828125 46.734375 
Q 21.96875 47.46875 24.109375 47.828125 
Q 26.265625 48.1875 28.421875 48.1875 
Q 40.625 48.1875 47.75 41.5 
Q 54.890625 34.8125 54.890625 23.390625 
Q 54.890625 11.625 47.5625 5.09375 
Q 40.234375 -1.421875 26.90625 -1.421875 
Q 22.3125 -1.421875 17.546875 -0.640625 
Q 12.796875 0.140625 7.71875 1.703125 
L 7.71875 11.625 
Q 12.109375 9.234375 16.796875 8.0625 
Q 21.484375 6.890625 26.703125 6.890625 
Q 35.15625 6.890625 40.078125 11.328125 
Q 45.015625 15.765625 45.015625 23.390625 
Q 45.015625 31 40.078125 35.4375 
Q 35.15625 39.890625 26.703125 39.890625 
Q 22.75 39.890625 18.8125 39.015625 
Q 14.890625 38.140625 10.796875 36.28125 
z
" id="DejaVuSans-53"/>
      </defs>
      <g transform="translate(29.495313 274.568786)scale(0.1 -0.1)">
       <use xlink:href="#DejaVuSans-8722"/>
       <use x="83.789062" xlink:href="#DejaVuSans-49"/>
       <use x="147.412109" xlink:href="#DejaVuSans-53"/>
      </g>
     </g>
    </g>
    <g id="ytick_3">
     <g id="line2d_17">
      <path clip-path="url(#p6fe52c182c)" d="M 57.6 241.050907 
L 414.72 241.050907 
" style="fill:none;stroke:#b0b0b0;stroke-linecap:square;stroke-width:0.8;"/>
     </g>
     <g id="line2d_18">
      <g>
       <use style="stroke:#000000;stroke-width:0.8;" x="57.6" xlink:href="#mb5395775af" y="241.050907"/>
      </g>
     </g>
     <g id="text_10">
      <!-- −10 -->
      <g transform="translate(29.495313 244.850126)scale(0.1 -0.1)">
       <use xlink:href="#DejaVuSans-8722"/>
       <use x="83.789062" xlink:href="#DejaVuSans-49"/>
       <use x="147.412109" xlink:href="#DejaVuSans-48"/>
      </g>
     </g>
    </g>
    <g id="ytick_4">
     <g id="line2d_19">
      <path clip-path="url(#p6fe52c182c)" d="M 57.6 211.332248 
L 414.72 211.332248 
" style="fill:none;stroke:#b0b0b0;stroke-linecap:square;stroke-width:0.8;"/>
     </g>
     <g id="line2d_20">
      <g>
       <use style="stroke:#000000;stroke-width:0.8;" x="57.6" xlink:href="#mb5395775af" y="211.332248"/>
      </g>
     </g>
     <g id="text_11">
      <!-- −5 -->
      <g transform="translate(35.857813 215.131466)scale(0.1 -0.1)">
       <use xlink:href="#DejaVuSans-8722"/>
       <use x="83.789062" xlink:href="#DejaVuSans-53"/>
      </g>
     </g>
    </g>
    <g id="ytick_5">
     <g id="line2d_21">
      <path clip-path="url(#p6fe52c182c)" d="M 57.6 181.613588 
L 414.72 181.613588 
" style="fill:none;stroke:#b0b0b0;stroke-linecap:square;stroke-width:0.8;"/>
     </g>
     <g id="line2d_22">
      <g>
       <use style="stroke:#000000;stroke-width:0.8;" x="57.6" xlink:href="#mb5395775af" y="181.613588"/>
      </g>
     </g>
     <g id="text_12">
      <!-- 0 -->
      <g transform="translate(44.2375 185.412807)scale(0.1 -0.1)">
       <use xlink:href="#DejaVuSans-48"/>
      </g>
     </g>
    </g>
    <g id="ytick_6">
     <g id="line2d_23">
      <path clip-path="url(#p6fe52c182c)" d="M 57.6 151.894928 
L 414.72 151.894928 
" style="fill:none;stroke:#b0b0b0;stroke-linecap:square;stroke-width:0.8;"/>
     </g>
     <g id="line2d_24">
      <g>
       <use style="stroke:#000000;stroke-width:0.8;" x="57.6" xlink:href="#mb5395775af" y="151.894928"/>
      </g>
     </g>
     <g id="text_13">
      <!-- 5 -->
      <g transform="translate(44.2375 155.694147)scale(0.1 -0.1)">
       <use xlink:href="#DejaVuSans-53"/>
      </g>
     </g>
    </g>
    <g id="ytick_7">
     <g id="line2d_25">
      <path clip-path="url(#p6fe52c182c)" d="M 57.6 122.176268 
L 414.72 122.176268 
" style="fill:none;stroke:#b0b0b0;stroke-linecap:square;stroke-width:0.8;"/>
     </g>
     <g id="line2d_26">
      <g>
       <use style="stroke:#000000;stroke-width:0.8;" x="57.6" xlink:href="#mb5395775af" y="122.176268"/>
      </g>
     </g>
     <g id="text_14">
      <!-- 10 -->
      <g transform="translate(37.875 125.975487)scale(0.1 -0.1)">
       <use xlink:href="#DejaVuSans-49"/>
       <use x="63.623047" xlink:href="#DejaVuSans-48"/>
      </g>
     </g>
    </g>
    <g id="ytick_8">
     <g id="line2d_27">
      <path clip-path="url(#p6fe52c182c)" d="M 57.6 92.457609 
L 414.72 92.457609 
" style="fill:none;stroke:#b0b0b0;stroke-linecap:square;stroke-width:0.8;"/>
     </g>
     <g id="line2d_28">
      <g>
       <use style="stroke:#000000;stroke-width:0.8;" x="57.6" xlink:href="#mb5395775af" y="92.457609"/>
      </g>
     </g>
     <g id="text_15">
      <!-- 15 -->
      <g transform="translate(37.875 96.256828)scale(0.1 -0.1)">
       <use xlink:href="#DejaVuSans-49"/>
       <use x="63.623047" xlink:href="#DejaVuSans-53"/>
      </g>
     </g>
    </g>
    <g id="ytick_9">
     <g id="line2d_29">
      <path clip-path="url(#p6fe52c182c)" d="M 57.6 62.738949 
L 414.72 62.738949 
" style="fill:none;stroke:#b0b0b0;stroke-linecap:square;stroke-width:0.8;"/>
     </g>
     <g id="line2d_30">
      <g>
       <use style="stroke:#000000;stroke-width:0.8;" x="57.6" xlink:href="#mb5395775af" y="62.738949"/>
      </g>
     </g>
     <g id="text_16">
      <!-- 20 -->
      <g transform="translate(37.875 66.538168)scale(0.1 -0.1)">
       <use xlink:href="#DejaVuSans-50"/>
       <use x="63.623047" xlink:href="#DejaVuSans-48"/>
      </g>
     </g>
    </g>
    <g id="text_17">
     <!-- Desplazamiento [cm] -->
     <defs>
      <path d="M 19.671875 64.796875 
L 19.671875 8.109375 
L 31.59375 8.109375 
Q 46.6875 8.109375 53.6875 14.9375 
Q 60.6875 21.78125 60.6875 36.53125 
Q 60.6875 51.171875 53.6875 57.984375 
Q 46.6875 64.796875 31.59375 64.796875 
z
M 9.8125 72.90625 
L 30.078125 72.90625 
Q 51.265625 72.90625 61.171875 64.09375 
Q 71.09375 55.28125 71.09375 36.53125 
Q 71.09375 17.671875 61.125 8.828125 
Q 51.171875 0 30.078125 0 
L 9.8125 0 
z
" id="DejaVuSans-68"/>
      <path d="M 9.421875 75.984375 
L 18.40625 75.984375 
L 18.40625 0 
L 9.421875 0 
z
" id="DejaVuSans-108"/>
      <path d="M 34.28125 27.484375 
Q 23.390625 27.484375 19.1875 25 
Q 14.984375 22.515625 14.984375 16.5 
Q 14.984375 11.71875 18.140625 8.90625 
Q 21.296875 6.109375 26.703125 6.109375 
Q 34.1875 6.109375 38.703125 11.40625 
Q 43.21875 16.703125 43.21875 25.484375 
L 43.21875 27.484375 
z
M 52.203125 31.203125 
L 52.203125 0 
L 43.21875 0 
L 43.21875 8.296875 
Q 40.140625 3.328125 35.546875 0.953125 
Q 30.953125 -1.421875 24.3125 -1.421875 
Q 15.921875 -1.421875 10.953125 3.296875 
Q 6 8.015625 6 15.921875 
Q 6 25.140625 12.171875 29.828125 
Q 18.359375 34.515625 30.609375 34.515625 
L 43.21875 34.515625 
L 43.21875 35.40625 
Q 43.21875 41.609375 39.140625 45 
Q 35.0625 48.390625 27.6875 48.390625 
Q 23 48.390625 18.546875 47.265625 
Q 14.109375 46.140625 10.015625 43.890625 
L 10.015625 52.203125 
Q 14.9375 54.109375 19.578125 55.046875 
Q 24.21875 56 28.609375 56 
Q 40.484375 56 46.34375 49.84375 
Q 52.203125 43.703125 52.203125 31.203125 
z
" id="DejaVuSans-97"/>
      <path d="M 5.515625 54.6875 
L 48.1875 54.6875 
L 48.1875 46.484375 
L 14.40625 7.171875 
L 48.1875 7.171875 
L 48.1875 0 
L 4.296875 0 
L 4.296875 8.203125 
L 38.09375 47.515625 
L 5.515625 47.515625 
z
" id="DejaVuSans-122"/>
      <path d="M 54.890625 33.015625 
L 54.890625 0 
L 45.90625 0 
L 45.90625 32.71875 
Q 45.90625 40.484375 42.875 44.328125 
Q 39.84375 48.1875 33.796875 48.1875 
Q 26.515625 48.1875 22.3125 43.546875 
Q 18.109375 38.921875 18.109375 30.90625 
L 18.109375 0 
L 9.078125 0 
L 9.078125 54.6875 
L 18.109375 54.6875 
L 18.109375 46.1875 
Q 21.34375 51.125 25.703125 53.5625 
Q 30.078125 56 35.796875 56 
Q 45.21875 56 50.046875 50.171875 
Q 54.890625 44.34375 54.890625 33.015625 
z
" id="DejaVuSans-110"/>
      <path d="M 18.3125 70.21875 
L 18.3125 54.6875 
L 36.8125 54.6875 
L 36.8125 47.703125 
L 18.3125 47.703125 
L 18.3125 18.015625 
Q 18.3125 11.328125 20.140625 9.421875 
Q 21.96875 7.515625 27.59375 7.515625 
L 36.8125 7.515625 
L 36.8125 0 
L 27.59375 0 
Q 17.1875 0 13.234375 3.875 
Q 9.28125 7.765625 9.28125 18.015625 
L 9.28125 47.703125 
L 2.6875 47.703125 
L 2.6875 54.6875 
L 9.28125 54.6875 
L 9.28125 70.21875 
z
" id="DejaVuSans-116"/>
      <path d="M 48.78125 52.59375 
L 48.78125 44.1875 
Q 44.96875 46.296875 41.140625 47.34375 
Q 37.3125 48.390625 33.40625 48.390625 
Q 24.65625 48.390625 19.8125 42.84375 
Q 14.984375 37.3125 14.984375 27.296875 
Q 14.984375 17.28125 19.8125 11.734375 
Q 24.65625 6.203125 33.40625 6.203125 
Q 37.3125 6.203125 41.140625 7.25 
Q 44.96875 8.296875 48.78125 10.40625 
L 48.78125 2.09375 
Q 45.015625 0.34375 40.984375 -0.53125 
Q 36.96875 -1.421875 32.421875 -1.421875 
Q 20.0625 -1.421875 12.78125 6.34375 
Q 5.515625 14.109375 5.515625 27.296875 
Q 5.515625 40.671875 12.859375 48.328125 
Q 20.21875 56 33.015625 56 
Q 37.15625 56 41.109375 55.140625 
Q 45.0625 54.296875 48.78125 52.59375 
z
" id="DejaVuSans-99"/>
     </defs>
     <g transform="translate(23.415625 228.00925)rotate(-90)scale(0.1 -0.1)">
      <use xlink:href="#DejaVuSans-68"/>
      <use x="77.001953" xlink:href="#DejaVuSans-101"/>
      <use x="138.525391" xlink:href="#DejaVuSans-115"/>
      <use x="190.625" xlink:href="#DejaVuSans-112"/>
      <use x="254.101562" xlink:href="#DejaVuSans-108"/>
      <use x="281.884766" xlink:href="#DejaVuSans-97"/>
      <use x="343.164062" xlink:href="#DejaVuSans-122"/>
      <use x="395.654297" xlink:href="#DejaVuSans-97"/>
      <use x="456.933594" xlink:href="#DejaVuSans-109"/>
      <use x="554.345703" xlink:href="#DejaVuSans-105"/>
      <use x="582.128906" xlink:href="#DejaVuSans-101"/>
      <use x="643.652344" xlink:href="#DejaVuSans-110"/>
      <use x="707.03125" xlink:href="#DejaVuSans-116"/>
      <use x="746.240234" xlink:href="#DejaVuSans-111"/>
      <use x="807.421875" xlink:href="#DejaVuSans-32"/>
      <use x="839.208984" xlink:href="#DejaVuSans-91"/>
      <use x="878.222656" xlink:href="#DejaVuSans-99"/>
      <use x="933.203125" xlink:href="#DejaVuSans-109"/>
      <use x="1030.615234" xlink:href="#DejaVuSans-93"/>
     </g>
    </g>
   </g>
   <g id="line2d_31">
    <path clip-path="url(#p6fe52c182c)" d="M 73.832727 181.613588 
L 75.456 181.677771 
L 77.079273 181.986194 
L 78.702545 182.741562 
L 80.325818 184.081798 
L 81.949091 186.069777 
L 83.572364 188.689752 
L 85.195636 191.850962 
L 88.442182 199.12803 
L 90.065455 202.810168 
L 91.688727 206.210179 
L 93.312 209.113063 
L 94.935273 211.344352 
L 96.558545 212.787024 
L 98.181818 213.392502 
L 99.805091 213.184683 
L 101.428364 212.256596 
L 103.051636 210.760007 
L 106.298182 206.864726 
L 107.921455 204.917388 
L 109.544727 203.258377 
L 111.168 202.053691 
L 112.791273 201.406076 
L 114.414545 201.350308 
L 116.037818 201.861478 
L 117.661091 202.849642 
L 122.530909 206.905123 
L 124.154182 207.881477 
L 125.777455 208.304949 
L 127.400727 208.006612 
L 129.024 206.876013 
L 130.647273 204.872649 
L 132.270545 202.03489 
L 133.893818 198.470638 
L 135.517091 194.343259 
L 142.010182 176.764214 
L 143.633455 173.212261 
L 145.256727 170.317083 
L 146.88 168.126719 
L 148.503273 166.610535 
L 150.126545 165.664354 
L 151.749818 165.123346 
L 154.996364 164.395953 
L 156.619636 163.743989 
L 158.242909 162.610151 
L 159.866182 160.822499 
L 161.489455 158.271822 
L 163.112727 154.928172 
L 164.736 150.844945 
L 166.359273 146.155032 
L 172.852364 125.949633 
L 174.475636 121.82965 
L 176.098909 118.51735 
L 177.722182 116.16001 
L 179.345455 114.846445 
L 180.968727 114.561867 
L 182.592 115.17397 
L 184.215273 116.478592 
L 185.838545 118.255462 
L 189.085091 122.265257 
L 190.708364 124.003408 
L 192.331636 125.299064 
L 193.954909 126.031915 
L 195.578182 126.147939 
L 197.201455 125.670333 
L 198.824727 124.694875 
L 202.071273 121.921815 
L 203.694545 120.563117 
L 205.317818 119.534403 
L 206.941091 119.049335 
L 208.564364 119.239196 
L 210.187636 120.17688 
L 211.810909 121.949386 
L 213.434182 124.565804 
L 215.057455 127.916003 
L 216.680727 131.829823 
L 223.173818 148.637743 
L 224.797091 152.000546 
L 226.420364 154.714657 
L 228.043636 156.730886 
L 229.666909 158.07725 
L 231.290182 158.856301 
L 232.913455 159.230684 
L 236.16 159.629323 
L 237.783273 160.122881 
L 239.406545 161.10787 
L 241.029818 162.758645 
L 242.653091 165.189189 
L 244.276364 168.443143 
L 245.899636 172.489506 
L 247.522909 177.230146 
L 250.769455 188.137697 
L 254.016 199.496275 
L 255.639273 204.765964 
L 257.262545 209.494911 
L 258.885818 213.541858 
L 260.509091 216.828535 
L 262.132364 219.344345 
L 263.755636 221.14355 
L 265.378909 222.343128 
L 267.002182 223.116917 
L 270.248727 224.2744 
L 271.872 225.089448 
L 273.495273 226.258183 
L 275.118545 227.846693 
L 276.741818 229.902297 
L 278.365091 232.425299 
L 279.988364 235.326553 
L 284.858182 244.736033 
L 286.481455 247.364292 
L 288.104727 249.373206 
L 289.728 250.607152 
L 291.351273 250.952155 
L 292.974545 250.362532 
L 294.597818 248.882765 
L 296.221091 246.62852 
L 297.844364 243.767471 
L 304.337455 230.896663 
L 305.960727 228.443787 
L 307.584 226.611664 
L 309.207273 225.449368 
L 310.830545 224.929402 
L 312.453818 224.951476 
L 314.077091 225.354877 
L 317.323636 226.447461 
L 318.946909 226.665847 
L 320.570182 226.3718 
L 322.193455 225.39339 
L 323.816727 223.618031 
L 325.44 221.023682 
L 327.063273 217.662329 
L 328.686545 213.617005 
L 331.933091 204.127298 
L 335.179636 194.278229 
L 336.802909 189.797366 
L 338.426182 185.86853 
L 340.049455 182.612011 
L 341.672727 180.071468 
L 343.296 178.214149 
L 344.919273 176.938177 
L 346.542545 176.08183 
L 349.789091 174.752295 
L 351.412364 173.783931 
L 353.035636 172.313935 
L 354.658909 170.182892 
L 356.282182 167.302591 
L 357.905455 163.666786 
L 359.528727 159.337894 
L 361.152 154.447621 
L 366.021818 138.682142 
L 367.645091 133.945842 
L 369.268364 129.893889 
L 370.891636 126.746009 
L 372.514909 124.617027 
L 374.138182 123.519191 
L 375.761455 123.410403 
L 377.384727 124.177561 
L 379.008 125.633784 
L 380.631273 127.554184 
L 383.877818 131.792217 
L 385.501091 133.631908 
L 387.124364 135.024869 
L 388.747636 135.849235 
L 390.370909 136.051911 
L 391.994182 135.647047 
L 393.617455 134.723938 
L 396.864 132.037794 
L 398.487273 130.724841 
L 398.487273 130.724841 
" style="fill:none;stroke:#1f77b4;stroke-linecap:square;stroke-width:1.5;"/>
   </g>
   <g id="line2d_32">
    <path clip-path="url(#p6fe52c182c)" d="M 73.832727 181.613588 
L 75.456 181.680499 
L 77.079273 182.007004 
L 78.702545 182.822477 
L 80.325818 184.301338 
L 81.949091 186.54525 
L 83.572364 189.572777 
L 85.195636 193.317425 
L 86.818909 197.634125 
L 91.688727 211.727923 
L 93.312 215.925663 
L 94.935273 219.463301 
L 96.558545 222.163784 
L 98.181818 223.921597 
L 99.805091 224.711973 
L 101.428364 224.591892 
L 103.051636 223.692768 
L 104.674909 222.205605 
L 109.544727 216.65903 
L 111.168 215.26364 
L 112.791273 214.401177 
L 114.414545 214.155918 
L 116.037818 214.544529 
L 117.661091 215.507022 
L 119.284364 216.902874 
L 122.530909 220.131109 
L 124.154182 221.449577 
L 125.777455 222.223827 
L 127.400727 222.230253 
L 129.024 221.301411 
L 130.647273 219.343068 
L 132.270545 216.348618 
L 133.893818 212.394291 
L 135.517091 207.627919 
L 138.763636 196.576791 
L 142.010182 185.308361 
L 143.633455 180.231086 
L 145.256727 175.786684 
L 146.88 172.079909 
L 148.503273 169.128152 
L 150.126545 166.861864 
L 151.749818 165.134254 
L 156.619636 160.908726 
L 158.242909 158.955321 
L 159.866182 156.330216 
L 161.489455 152.86795 
L 163.112727 148.486081 
L 164.736 143.19525 
L 166.359273 137.10031 
L 169.605818 123.336959 
L 172.852364 109.402765 
L 174.475636 103.127225 
L 176.098909 97.665847 
L 177.722182 93.235399 
L 179.345455 89.992526 
L 180.968727 87.982319 
L 182.592 87.116646 
L 184.215273 87.214726 
L 185.838545 88.05886 
L 187.461818 89.397862 
L 190.708364 92.41025 
L 192.331636 93.555633 
L 193.954909 94.200786 
L 195.578182 94.235565 
L 197.201455 93.635257 
L 198.824727 92.460604 
L 200.448 90.847948 
L 203.694545 87.17165 
L 205.317818 85.624873 
L 206.941091 84.620473 
L 208.564364 84.34167 
L 210.187636 84.912825 
L 211.810909 86.47041 
L 213.434182 89.068893 
L 215.057455 92.631948 
L 216.680727 97.006234 
L 219.927273 107.299981 
L 223.173818 117.848557 
L 224.797091 122.565201 
L 226.420364 126.659238 
L 228.043636 130.025296 
L 229.666909 132.643631 
L 231.290182 134.582196 
L 232.913455 135.985454 
L 237.783273 139.266527 
L 239.406545 140.924329 
L 241.029818 143.269438 
L 242.653091 146.472886 
L 244.276364 150.632241 
L 245.899636 155.761984 
L 247.522909 161.796699 
L 249.146182 168.60073 
L 252.392727 183.677747 
L 255.639273 198.974863 
L 257.262545 206.050311 
L 258.885818 212.459807 
L 260.509091 218.066107 
L 262.132364 222.805704 
L 263.755636 226.690337 
L 265.378909 229.808256 
L 267.002182 232.32092 
L 273.495273 240.963682 
L 275.118545 243.748904 
L 276.741818 247.012989 
L 278.365091 250.791906 
L 279.988364 255.022499 
L 286.481455 273.131129 
L 288.104727 276.713539 
L 289.728 279.446868 
L 291.351273 281.160313 
L 292.974545 281.754129 
L 294.597818 281.227492 
L 296.221091 279.664638 
L 297.844364 277.218342 
L 299.467636 274.106928 
L 304.337455 263.562307 
L 305.960727 260.513792 
L 307.584 258.039731 
L 309.207273 256.246114 
L 310.830545 255.153805 
L 312.453818 254.697703 
L 314.077091 254.735929 
L 317.323636 255.422578 
L 318.946909 255.549782 
L 320.570182 255.18201 
L 322.193455 254.09338 
L 323.816727 252.114834 
L 325.44 249.171851 
L 327.063273 245.273941 
L 328.686545 240.474152 
L 330.309818 234.90364 
L 333.556364 222.343686 
L 336.802909 209.658277 
L 338.426182 203.913799 
L 340.049455 198.827266 
L 341.672727 194.498491 
L 343.296 190.942033 
L 344.919273 188.090083 
L 346.542545 185.798747 
L 351.412364 179.950433 
L 353.035636 177.434522 
L 354.658909 174.240884 
L 356.282182 170.225205 
L 357.905455 165.330746 
L 359.528727 159.580191 
L 361.152 153.080027 
L 364.398545 138.691316 
L 367.645091 124.404692 
L 369.268364 118.071461 
L 370.891636 112.672225 
L 372.514909 108.39433 
L 374.138182 105.315786 
L 375.761455 103.44834 
L 377.384727 102.717819 
L 379.008 102.957969 
L 380.631273 103.944735 
L 382.254545 105.411653 
L 385.501091 108.65394 
L 387.124364 109.912021 
L 388.747636 110.666195 
L 390.370909 110.806784 
L 391.994182 110.299263 
L 393.617455 109.196573 
L 395.240727 107.645269 
L 398.487273 104.091891 
L 398.487273 104.091891 
" style="fill:none;stroke:#ff7f0e;stroke-linecap:square;stroke-width:1.5;"/>
   </g>
   <g id="line2d_33">
    <path clip-path="url(#p6fe52c182c)" d="M 73.832727 181.613588 
L 75.456 181.680615 
L 77.079273 182.0081 
L 78.702545 182.827702 
L 80.325818 184.318414 
L 81.949091 186.588872 
L 83.572364 189.666529 
L 85.195636 193.494764 
L 86.818909 197.938211 
L 93.312 217.291803 
L 94.935273 221.235084 
L 96.558545 224.384122 
L 98.181818 226.620713 
L 99.805091 227.905193 
L 101.428364 228.278649 
L 103.051636 227.856899 
L 104.674909 226.816931 
L 107.921455 223.805187 
L 109.544727 222.336061 
L 111.168 221.192051 
L 112.791273 220.533447 
L 114.414545 220.452486 
L 116.037818 220.976077 
L 117.661091 222.055599 
L 119.284364 223.561758 
L 122.530909 227.027165 
L 124.154182 228.483564 
L 125.777455 229.409715 
L 127.400727 229.577676 
L 129.024 228.811806 
L 130.647273 227.006505 
L 132.270545 224.141631 
L 133.893818 220.278971 
L 135.517091 215.552343 
L 137.140364 210.166739 
L 143.633455 187.263683 
L 145.256727 182.414876 
L 146.88 178.244751 
L 148.503273 174.783927 
L 150.126545 171.977209 
L 151.749818 169.691888 
L 156.619636 163.799269 
L 158.242909 161.311572 
L 159.866182 158.16219 
L 161.489455 154.179079 
L 163.112727 149.269916 
L 164.736 143.433259 
L 166.359273 136.761036 
L 169.605818 121.701695 
L 172.852364 106.232724 
L 174.475636 99.09706 
L 176.098909 92.721481 
L 177.722182 87.334158 
L 179.345455 83.106871 
L 180.968727 80.102585 
L 182.592 78.252373 
L 184.215273 77.394295 
L 185.838545 77.327511 
L 187.461818 77.814454 
L 190.708364 79.33263 
L 192.331636 79.840621 
L 193.954909 79.916918 
L 195.578182 79.443018 
L 197.201455 78.383136 
L 198.824727 76.785542 
L 200.448 74.774087 
L 203.694545 70.330639 
L 205.317818 68.401886 
L 206.941091 67.013924 
L 208.564364 66.353176 
L 210.187636 66.550901 
L 211.810909 67.753451 
L 213.434182 70.027419 
L 215.057455 73.309853 
L 216.680727 77.460662 
L 218.304 82.28051 
L 224.797091 103.056692 
L 226.420364 107.395477 
L 228.043636 111.068656 
L 229.666909 114.043181 
L 231.290182 116.372587 
L 232.913455 118.187184 
L 237.783273 122.714685 
L 239.406545 124.772448 
L 241.029818 127.510391 
L 242.653091 131.106167 
L 244.276364 135.667348 
L 245.899636 141.220767 
L 247.522909 147.714465 
L 249.146182 155.026024 
L 252.392727 171.308072 
L 255.639273 188.10601 
L 257.262545 196.043596 
L 258.885818 203.381632 
L 260.509091 209.972125 
L 262.132364 215.73806 
L 263.755636 220.676022 
L 265.378909 224.858701 
L 267.002182 228.432871 
L 273.495273 241.088624 
L 275.118545 244.801017 
L 276.741818 248.967242 
L 278.365091 253.630509 
L 281.611636 264.172734 
L 284.858182 275.270937 
L 286.481455 280.398171 
L 288.104727 284.898742 
L 289.728 288.556373 
L 291.351273 291.190786 
L 292.974545 292.689734 
L 294.597818 293.037835 
L 296.221091 292.303971 
L 297.844364 290.626132 
L 299.467636 288.209722 
L 302.714182 282.240481 
L 304.337455 279.230799 
L 305.960727 276.526275 
L 307.584 274.315785 
L 309.207273 272.716015 
L 310.830545 271.760948 
L 312.453818 271.399759 
L 314.077091 271.504615 
L 317.323636 272.286824 
L 318.946909 272.458727 
L 320.570182 272.13744 
L 322.193455 271.094546 
L 323.816727 269.154399 
L 325.44 266.232572 
L 327.063273 262.326476 
L 328.686545 257.476133 
L 330.309818 251.799985 
L 333.556364 238.821378 
L 336.802909 225.402594 
L 338.426182 219.174326 
L 340.049455 213.534821 
L 341.672727 208.594982 
L 343.296 204.382805 
L 344.919273 200.844992 
L 346.542545 197.851859 
L 351.412364 189.913371 
L 353.035636 186.725177 
L 354.658909 182.870467 
L 356.282182 178.198089 
L 357.905455 172.641324 
L 359.528727 166.210913 
L 361.152 159.000799 
L 364.398545 143.057131 
L 367.645091 126.990054 
L 369.268364 119.680855 
L 370.891636 113.257458 
L 372.514909 107.919699 
L 374.138182 103.761687 
L 375.761455 100.813514 
L 377.384727 99.020157 
L 379.008 98.233845 
L 380.631273 98.246922 
L 382.254545 98.806018 
L 385.501091 100.461139 
L 387.124364 101.043423 
L 388.747636 101.195011 
L 390.370909 100.797393 
L 391.994182 99.80454 
L 393.617455 98.256461 
L 395.240727 96.286747 
L 398.487273 91.933877 
L 398.487273 91.933877 
" style="fill:none;stroke:#2ca02c;stroke-linecap:square;stroke-width:1.5;"/>
   </g>
   <g id="line2d_34">
    <path clip-path="url(#p6fe52c182c)" d="M 73.832727 181.613588 
L 75.456 181.68062 
L 77.079273 182.008156 
L 78.702545 182.828017 
L 80.325818 184.319621 
L 81.949091 186.592447 
L 83.572364 189.675317 
L 85.195636 193.513543 
L 86.818909 197.974195 
L 93.312 217.525064 
L 94.935273 221.562238 
L 96.558545 224.825879 
L 98.181818 227.1976 
L 99.805091 228.636477 
L 101.428364 229.181306 
L 103.051636 228.944718 
L 104.674909 228.099839 
L 106.298182 226.865874 
L 109.544727 224.221193 
L 111.168 223.270239 
L 112.791273 222.795621 
L 114.414545 222.887752 
L 116.037818 223.572731 
L 117.661091 224.802099 
L 119.284364 226.447585 
L 122.530909 230.167151 
L 124.154182 231.742562 
L 125.777455 232.784942 
L 127.400727 233.067706 
L 129.024 232.415806 
L 130.647273 230.723311 
L 132.270545 227.968764 
L 133.893818 224.211689 
L 135.517091 219.582836 
L 137.140364 214.28354 
L 143.633455 191.534133 
L 145.256727 186.660053 
L 146.88 182.435698 
L 148.503273 178.891791 
L 150.126545 175.974314 
L 151.749818 173.552666 
L 156.619636 167.127478 
L 158.242909 164.431731 
L 159.866182 161.063612 
L 161.489455 156.852779 
L 163.112727 151.707658 
L 164.736 145.626535 
L 166.359273 138.700095 
L 169.605818 123.094267 
L 172.852364 107.009661 
L 174.475636 99.53373 
L 176.098909 92.793924 
L 177.722182 87.017876 
L 179.345455 82.378006 
L 180.968727 78.939164 
L 182.592 76.63552 
L 184.215273 75.309281 
L 185.838545 74.76454 
L 187.461818 74.769112 
L 190.708364 75.330856 
L 192.331636 75.374515 
L 193.954909 75.000913 
L 195.578182 74.094123 
L 197.201455 72.619779 
L 198.824727 70.626434 
L 200.448 68.237223 
L 203.694545 63.085753 
L 205.317818 60.822581 
L 206.941091 59.110546 
L 208.564364 58.134549 
L 210.187636 58.025032 
L 211.810909 58.92839 
L 213.434182 60.912182 
L 215.057455 63.915333 
L 216.680727 67.800432 
L 218.304 72.371427 
L 224.797091 92.391213 
L 226.420364 96.615118 
L 228.043636 100.206153 
L 229.666909 103.130987 
L 231.290182 105.441821 
L 232.913455 107.266713 
L 237.783273 111.967233 
L 239.406545 114.119007 
L 241.029818 116.96439 
L 242.653091 120.67925 
L 244.276364 125.370347 
L 245.899636 131.064745 
L 247.522909 137.711721 
L 249.146182 145.190971 
L 252.392727 161.863123 
L 257.262545 187.367152 
L 258.885818 195.020141 
L 260.509091 201.956825 
L 262.132364 208.099736 
L 263.755636 213.443917 
L 265.378909 218.059527 
L 267.002182 222.089999 
L 273.495273 236.724747 
L 275.118545 240.951389 
L 276.741818 245.633973 
L 278.365091 250.814247 
L 281.611636 262.39071 
L 284.858182 274.526987 
L 286.481455 280.177292 
L 288.104727 285.204907 
L 289.728 289.393952 
L 291.351273 292.563811 
L 292.974545 294.601011 
L 294.597818 295.488 
L 296.221091 295.290584 
L 297.844364 294.142911 
L 299.467636 292.246007 
L 301.090909 289.860763 
L 304.337455 284.716009 
L 305.960727 282.444372 
L 307.584 280.636785 
L 309.207273 279.40851 
L 310.830545 278.793254 
L 312.453818 278.741023 
L 314.077091 279.125779 
L 317.323636 280.391175 
L 318.946909 280.772414 
L 320.570182 280.64284 
L 322.193455 279.776363 
L 323.816727 277.998883 
L 325.44 275.226571 
L 327.063273 271.456431 
L 328.686545 266.72711 
L 330.309818 261.154849 
L 333.556364 248.320997 
L 336.802909 234.942046 
L 338.426182 228.687575 
L 340.049455 222.988871 
L 341.672727 217.956351 
L 343.296 213.618595 
L 344.919273 209.923919 
L 346.542545 206.745143 
L 351.412364 198.110309 
L 353.035636 194.655185 
L 354.658909 190.521111 
L 356.282182 185.558812 
L 357.905455 179.702467 
L 359.528727 172.962683 
L 361.152 165.432313 
L 364.398545 148.807424 
L 367.645091 131.988015 
L 369.268364 124.270181 
L 370.891636 117.414623 
L 372.514909 111.621023 
L 374.138182 106.984538 
L 375.761455 103.537563 
L 377.384727 101.228544 
L 379.008 99.914158 
L 380.631273 99.391912 
L 382.254545 99.413978 
L 385.501091 100.01181 
L 387.124364 100.083596 
L 388.747636 99.741916 
L 390.370909 98.870771 
L 391.994182 97.425463 
L 393.617455 95.446182 
L 395.240727 93.065684 
L 398.487273 87.945466 
L 398.487273 87.945466 
" style="fill:none;stroke:#d62728;stroke-linecap:square;stroke-width:1.5;"/>
   </g>
   <g id="line2d_35">
    <path clip-path="url(#p6fe52c182c)" d="M 73.832727 181.613588 
L 75.456 181.68062 
L 77.079273 182.008158 
L 78.702545 182.828035 
L 80.325818 184.319701 
L 81.949091 186.592716 
L 83.572364 189.676064 
L 85.195636 193.515331 
L 86.818909 197.977999 
L 93.312 217.560026 
L 94.935273 221.615053 
L 96.558545 224.9024 
L 98.181818 227.304469 
L 99.805091 228.780946 
L 101.428364 229.370995 
L 103.051636 229.187342 
L 104.674909 228.402911 
L 107.921455 225.935217 
L 109.544727 224.744443 
L 111.168 223.876641 
L 112.791273 223.488128 
L 114.414545 223.668126 
L 116.037818 224.441624 
L 117.661091 225.759205 
L 119.284364 227.491838 
L 122.530909 231.380584 
L 124.154182 233.037624 
L 125.777455 234.159695 
L 127.400727 234.52039 
L 129.024 233.944878 
L 130.647273 232.327404 
L 132.270545 229.646582 
L 133.893818 225.961834 
L 135.517091 221.403599 
L 137.140364 216.172666 
L 143.633455 193.655864 
L 145.256727 188.823954 
L 146.88 184.632977 
L 148.503273 181.11263 
L 150.126545 178.208075 
L 151.749818 175.788149 
L 156.619636 169.299481 
L 158.242909 166.560486 
L 159.866182 163.138944 
L 161.489455 158.865176 
L 163.112727 153.648253 
L 164.736 147.487013 
L 166.359273 140.472536 
L 169.605818 124.667411 
L 172.852364 108.35125 
L 174.475636 100.746273 
L 176.098909 93.867744 
L 177.722182 87.94268 
L 179.345455 83.142988 
L 180.968727 79.533199 
L 182.592 77.047419 
L 184.215273 75.528103 
L 185.838545 74.779921 
L 187.461818 74.571599 
L 190.708364 74.684267 
L 192.331636 74.49481 
L 193.954909 73.884605 
L 195.578182 72.739411 
L 197.201455 71.026445 
L 198.824727 68.795666 
L 202.071273 63.346128 
L 203.694545 60.560264 
L 205.317818 58.07353 
L 206.941091 56.142416 
L 208.564364 54.951846 
L 210.187636 54.63221 
L 211.810909 55.329846 
L 213.434182 57.112327 
L 215.057455 59.918722 
L 216.680727 63.611946 
L 218.304 67.996477 
L 224.797091 87.341813 
L 226.420364 91.420375 
L 228.043636 94.877611 
L 229.666909 97.681135 
L 231.290182 99.883881 
L 232.913455 101.614386 
L 237.783273 106.114606 
L 239.406545 108.226186 
L 241.029818 111.043671 
L 242.653091 114.7422 
L 244.276364 119.427823 
L 245.899636 125.126991 
L 247.522909 131.788537 
L 249.146182 139.291921 
L 252.392727 156.041297 
L 257.262545 181.740267 
L 258.885818 189.482146 
L 260.509091 196.52096 
L 262.132364 202.77988 
L 263.755636 208.254406 
L 265.378909 213.014913 
L 267.002182 217.204774 
L 273.495273 232.611344 
L 275.118545 237.05994 
L 276.741818 241.973825 
L 278.365091 247.393609 
L 281.611636 259.469674 
L 284.858182 272.127853 
L 286.481455 278.046195 
L 288.104727 283.346189 
L 289.728 287.811784 
L 291.351273 291.262201 
L 292.974545 293.583756 
L 294.597818 294.75856 
L 296.221091 294.851909 
L 297.844364 293.997225 
L 299.467636 292.394571 
L 301.090909 290.30365 
L 304.337455 285.742074 
L 305.960727 283.75615 
L 307.584 282.228213 
L 309.207273 281.272002 
L 310.830545 280.919862 
L 312.453818 281.120659 
L 314.077091 281.747494 
L 317.323636 283.462228 
L 318.946909 284.050457 
L 320.570182 284.116314 
L 322.193455 283.434086 
L 323.816727 281.830135 
L 325.44 279.221088 
L 327.063273 275.604323 
L 328.686545 271.018718 
L 330.309818 265.58055 
L 333.556364 252.985067 
L 336.802909 239.80109 
L 338.426182 233.625906 
L 340.049455 227.993204 
L 341.672727 223.012591 
L 343.296 218.711969 
L 344.919273 215.039173 
L 346.542545 211.866783 
L 351.412364 203.159717 
L 353.035636 199.651774 
L 354.658909 195.451803 
L 356.282182 190.411425 
L 357.905455 184.465673 
L 359.528727 177.625904 
L 361.152 169.985545 
L 364.398545 153.11189 
L 367.645091 136.005127 
L 369.268364 128.128384 
L 370.891636 121.10316 
L 372.514909 115.128692 
L 374.138182 110.299817 
L 375.761455 106.648801 
L 377.384727 104.124225 
L 379.008 102.583212 
L 380.631273 101.824042 
L 382.254545 101.599974 
L 385.501091 101.683627 
L 387.124364 101.490712 
L 388.747636 100.881643 
L 390.370909 99.742196 
L 391.994182 98.029329 
L 393.617455 95.7847 
L 396.864 90.30417 
L 398.487273 87.511982 
L 398.487273 87.511982 
" style="fill:none;stroke:#9467bd;stroke-linecap:square;stroke-width:1.5;"/>
   </g>
   <g id="line2d_36">
    <path clip-path="url(#p6fe52c182c)" d="M 73.832727 181.613588 
L 75.456 181.68062 
L 77.079273 182.008159 
L 78.702545 182.828036 
L 80.325818 184.319706 
L 81.949091 186.592734 
L 83.572364 189.676122 
L 85.195636 193.515486 
L 86.818909 197.978363 
L 93.312 217.564663 
L 94.935273 221.62256 
L 96.558545 224.914012 
L 98.181818 227.321723 
L 99.805091 228.805685 
L 101.428364 229.405355 
L 103.051636 229.233715 
L 104.674909 228.463894 
L 107.921455 226.033687 
L 109.544727 224.865824 
L 111.168 224.023591 
L 112.791273 223.663118 
L 114.414545 223.873373 
L 116.037818 224.679037 
L 117.661091 226.030357 
L 119.284364 227.797954 
L 122.530909 231.758973 
L 124.154182 233.452738 
L 125.777455 234.611613 
L 127.400727 235.009021 
L 129.024 234.470005 
L 130.647273 232.888728 
L 132.270545 230.243745 
L 133.893818 226.594431 
L 135.517091 222.071168 
L 137.140364 216.87466 
L 143.633455 194.486821 
L 145.256727 189.683665 
L 146.88 185.51935 
L 148.503273 182.023168 
L 150.126545 179.139874 
L 151.749818 176.737914 
L 156.619636 170.280098 
L 158.242909 167.542926 
L 159.866182 164.11877 
L 161.489455 159.837932 
L 163.112727 154.609525 
L 164.736 148.432471 
L 166.359273 141.397958 
L 169.605818 125.540538 
L 172.852364 109.156283 
L 174.475636 101.511367 
L 176.098909 94.588896 
L 177.722182 88.615776 
L 179.345455 83.763779 
L 180.968727 80.097285 
L 182.592 77.550266 
L 184.215273 75.965072 
L 185.838545 75.146325 
L 187.461818 74.862773 
L 190.708364 74.811513 
L 192.331636 74.533852 
L 193.954909 73.831764 
L 195.578182 72.591459 
L 197.201455 70.780664 
L 198.824727 68.44988 
L 202.071273 62.795998 
L 203.694545 59.906838 
L 205.317818 57.316686 
L 206.941091 55.282424 
L 208.564364 53.989309 
L 210.187636 53.568 
L 211.810909 54.16505 
L 213.434182 55.848205 
L 215.057455 58.556684 
L 216.680727 62.153541 
L 218.304 66.443405 
L 224.797091 85.431231 
L 226.420364 89.427117 
L 228.043636 92.805066 
L 229.666909 95.533085 
L 231.290182 97.664502 
L 232.913455 99.328228 
L 236.16 102.076047 
L 237.783273 103.658449 
L 239.406545 105.724164 
L 241.029818 108.501344 
L 242.653091 112.165117 
L 244.276364 116.821462 
L 245.899636 122.496717 
L 247.522909 129.139575 
L 249.146182 136.629357 
L 252.392727 153.366316 
L 257.262545 179.083014 
L 258.885818 186.840709 
L 260.509091 193.900531 
L 262.132364 200.185844 
L 263.755636 205.692353 
L 265.378909 210.490629 
L 267.002182 214.724214 
L 273.495273 230.366584 
L 275.118545 234.889083 
L 276.741818 239.882488 
L 278.365091 245.387119 
L 281.611636 257.647518 
L 284.858182 270.507205 
L 286.481455 276.531899 
L 288.104727 281.941583 
L 289.728 286.519949 
L 291.351273 290.086001 
L 292.974545 292.525857 
L 294.597818 293.821444 
L 296.221091 294.037874 
L 297.844364 293.308365 
L 299.467636 291.832741 
L 301.090909 289.87042 
L 304.337455 285.569329 
L 305.960727 283.714424 
L 307.584 282.317358 
L 309.207273 281.491317 
L 310.830545 281.268072 
L 312.453818 281.59592 
L 314.077091 282.347406 
L 317.323636 284.302259 
L 318.946909 285.005123 
L 320.570182 285.18157 
L 322.193455 284.605669 
L 323.816727 283.103635 
L 325.44 280.592021 
L 327.063273 277.068173 
L 328.686545 272.570974 
L 330.309818 267.216711 
L 333.556364 254.775535 
L 336.802909 241.727514 
L 338.426182 235.61313 
L 340.049455 230.036192 
L 341.672727 225.106072 
L 343.296 220.85042 
L 344.919273 217.216812 
L 346.542545 214.07759 
L 351.412364 205.43213 
L 353.035636 201.931794 
L 354.658909 197.732993 
L 356.282182 192.68746 
L 357.905455 186.730397 
L 359.528727 179.873364 
L 361.152 172.210013 
L 364.398545 155.274054 
L 367.645091 138.084388 
L 369.268364 130.158736 
L 370.891636 123.07967 
L 372.514909 117.046408 
L 374.138182 112.153732 
L 375.761455 108.433848 
L 377.384727 105.835289 
L 379.008 104.215161 
L 380.631273 103.371782 
L 382.254545 103.058523 
L 385.501091 102.949715 
L 387.124364 102.654189 
L 388.747636 101.938836 
L 390.370909 100.689957 
L 391.994182 98.865082 
L 393.617455 96.506468 
L 396.864 90.794435 
L 398.487273 87.885855 
L 398.487273 87.885855 
" style="fill:none;stroke:#8c564b;stroke-linecap:square;stroke-width:1.5;"/>
   </g>
   <g id="patch_3">
    <path d="M 57.6 307.584 
L 57.6 41.472 
" style="fill:none;stroke:#000000;stroke-linecap:square;stroke-linejoin:miter;stroke-width:0.8;"/>
   </g>
   <g id="patch_4">
    <path d="M 414.72 307.584 
L 414.72 41.472 
" style="fill:none;stroke:#000000;stroke-linecap:square;stroke-linejoin:miter;stroke-width:0.8;"/>
   </g>
   <g id="patch_5">
    <path d="M 57.6 307.584 
L 414.72 307.584 
" style="fill:none;stroke:#000000;stroke-linecap:square;stroke-linejoin:miter;stroke-width:0.8;"/>
   </g>
   <g id="patch_6">
    <path d="M 57.6 41.472 
L 414.72 41.472 
" style="fill:none;stroke:#000000;stroke-linecap:square;stroke-linejoin:miter;stroke-width:0.8;"/>
   </g>
   <g id="text_18">
    <!-- Desplazamiento de la estructura -->
    <defs>
     <path d="M 45.40625 46.390625 
L 45.40625 75.984375 
L 54.390625 75.984375 
L 54.390625 0 
L 45.40625 0 
L 45.40625 8.203125 
Q 42.578125 3.328125 38.25 0.953125 
Q 33.9375 -1.421875 27.875 -1.421875 
Q 17.96875 -1.421875 11.734375 6.484375 
Q 5.515625 14.40625 5.515625 27.296875 
Q 5.515625 40.1875 11.734375 48.09375 
Q 17.96875 56 27.875 56 
Q 33.9375 56 38.25 53.625 
Q 42.578125 51.265625 45.40625 46.390625 
z
M 14.796875 27.296875 
Q 14.796875 17.390625 18.875 11.75 
Q 22.953125 6.109375 30.078125 6.109375 
Q 37.203125 6.109375 41.296875 11.75 
Q 45.40625 17.390625 45.40625 27.296875 
Q 45.40625 37.203125 41.296875 42.84375 
Q 37.203125 48.484375 30.078125 48.484375 
Q 22.953125 48.484375 18.875 42.84375 
Q 14.796875 37.203125 14.796875 27.296875 
z
" id="DejaVuSans-100"/>
     <path d="M 41.109375 46.296875 
Q 39.59375 47.171875 37.8125 47.578125 
Q 36.03125 48 33.890625 48 
Q 26.265625 48 22.1875 43.046875 
Q 18.109375 38.09375 18.109375 28.8125 
L 18.109375 0 
L 9.078125 0 
L 9.078125 54.6875 
L 18.109375 54.6875 
L 18.109375 46.1875 
Q 20.953125 51.171875 25.484375 53.578125 
Q 30.03125 56 36.53125 56 
Q 37.453125 56 38.578125 55.875 
Q 39.703125 55.765625 41.0625 55.515625 
z
" id="DejaVuSans-114"/>
     <path d="M 8.5 21.578125 
L 8.5 54.6875 
L 17.484375 54.6875 
L 17.484375 21.921875 
Q 17.484375 14.15625 20.5 10.265625 
Q 23.53125 6.390625 29.59375 6.390625 
Q 36.859375 6.390625 41.078125 11.03125 
Q 45.3125 15.671875 45.3125 23.6875 
L 45.3125 54.6875 
L 54.296875 54.6875 
L 54.296875 0 
L 45.3125 0 
L 45.3125 8.40625 
Q 42.046875 3.421875 37.71875 1 
Q 33.40625 -1.421875 27.6875 -1.421875 
Q 18.265625 -1.421875 13.375 4.4375 
Q 8.5 10.296875 8.5 21.578125 
z
M 31.109375 56 
z
" id="DejaVuSans-117"/>
    </defs>
    <g transform="translate(138.113438 35.472)scale(0.12 -0.12)">
     <use xlink:href="#DejaVuSans-68"/>
     <use x="77.001953" xlink:href="#DejaVuSans-101"/>
     <use x="138.525391" xlink:href="#DejaVuSans-115"/>
     <use x="190.625" xlink:href="#DejaVuSans-112"/>
     <use x="254.101562" xlink:href="#DejaVuSans-108"/>
     <use x="281.884766" xlink:href="#DejaVuSans-97"/>
     <use x="343.164062" xlink:href="#DejaVuSans-122"/>
     <use x="395.654297" xlink:href="#DejaVuSans-97"/>
     <use x="456.933594" xlink:href="#DejaVuSans-109"/>
     <use x="554.345703" xlink:href="#DejaVuSans-105"/>
     <use x="582.128906" xlink:href="#DejaVuSans-101"/>
     <use x="643.652344" xlink:href="#DejaVuSans-110"/>
     <use x="707.03125" xlink:href="#DejaVuSans-116"/>
     <use x="746.240234" xlink:href="#DejaVuSans-111"/>
     <use x="807.421875" xlink:href="#DejaVuSans-32"/>
     <use x="839.208984" xlink:href="#DejaVuSans-100"/>
     <use x="902.685547" xlink:href="#DejaVuSans-101"/>
     <use x="964.208984" xlink:href="#DejaVuSans-32"/>
     <use x="995.996094" xlink:href="#DejaVuSans-108"/>
     <use x="1023.779297" xlink:href="#DejaVuSans-97"/>
     <use x="1085.058594" xlink:href="#DejaVuSans-32"/>
     <use x="1116.845703" xlink:href="#DejaVuSans-101"/>
     <use x="1178.369141" xlink:href="#DejaVuSans-115"/>
     <use x="1230.46875" xlink:href="#DejaVuSans-116"/>
     <use x="1269.677734" xlink:href="#DejaVuSans-114"/>
     <use x="1310.791016" xlink:href="#DejaVuSans-117"/>
     <use x="1374.169922" xlink:href="#DejaVuSans-99"/>
     <use x="1429.150391" xlink:href="#DejaVuSans-116"/>
     <use x="1468.359375" xlink:href="#DejaVuSans-117"/>
     <use x="1531.738281" xlink:href="#DejaVuSans-114"/>
     <use x="1572.851562" xlink:href="#DejaVuSans-97"/>
    </g>
   </g>
   <g id="legend_1">
    <g id="patch_7">
     <path d="M 64.6 137.54075 
L 126.273438 137.54075 
Q 128.273438 137.54075 128.273438 135.54075 
L 128.273438 48.472 
Q 128.273438 46.472 126.273438 46.472 
L 64.6 46.472 
Q 62.6 46.472 62.6 48.472 
L 62.6 135.54075 
Q 62.6 137.54075 64.6 137.54075 
z
" style="fill:#ffffff;opacity:0.8;stroke:#cccccc;stroke-linejoin:miter;"/>
    </g>
    <g id="line2d_37">
     <path d="M 66.6 54.570438 
L 86.6 54.570438 
" style="fill:none;stroke:#1f77b4;stroke-linecap:square;stroke-width:1.5;"/>
    </g>
    <g id="line2d_38"/>
    <g id="text_19">
     <!-- Piso 1 -->
     <defs>
      <path d="M 19.671875 64.796875 
L 19.671875 37.40625 
L 32.078125 37.40625 
Q 38.96875 37.40625 42.71875 40.96875 
Q 46.484375 44.53125 46.484375 51.125 
Q 46.484375 57.671875 42.71875 61.234375 
Q 38.96875 64.796875 32.078125 64.796875 
z
M 9.8125 72.90625 
L 32.078125 72.90625 
Q 44.34375 72.90625 50.609375 67.359375 
Q 56.890625 61.8125 56.890625 51.125 
Q 56.890625 40.328125 50.609375 34.8125 
Q 44.34375 29.296875 32.078125 29.296875 
L 19.671875 29.296875 
L 19.671875 0 
L 9.8125 0 
z
" id="DejaVuSans-80"/>
     </defs>
     <g transform="translate(94.6 58.070438)scale(0.1 -0.1)">
      <use xlink:href="#DejaVuSans-80"/>
      <use x="60.271484" xlink:href="#DejaVuSans-105"/>
      <use x="88.054688" xlink:href="#DejaVuSans-115"/>
      <use x="140.154297" xlink:href="#DejaVuSans-111"/>
      <use x="201.335938" xlink:href="#DejaVuSans-32"/>
      <use x="233.123047" xlink:href="#DejaVuSans-49"/>
     </g>
    </g>
    <g id="line2d_39">
     <path d="M 66.6 69.248563 
L 86.6 69.248563 
" style="fill:none;stroke:#ff7f0e;stroke-linecap:square;stroke-width:1.5;"/>
    </g>
    <g id="line2d_40"/>
    <g id="text_20">
     <!-- Piso 2 -->
     <g transform="translate(94.6 72.748563)scale(0.1 -0.1)">
      <use xlink:href="#DejaVuSans-80"/>
      <use x="60.271484" xlink:href="#DejaVuSans-105"/>
      <use x="88.054688" xlink:href="#DejaVuSans-115"/>
      <use x="140.154297" xlink:href="#DejaVuSans-111"/>
      <use x="201.335938" xlink:href="#DejaVuSans-32"/>
      <use x="233.123047" xlink:href="#DejaVuSans-50"/>
     </g>
    </g>
    <g id="line2d_41">
     <path d="M 66.6 83.926688 
L 86.6 83.926688 
" style="fill:none;stroke:#2ca02c;stroke-linecap:square;stroke-width:1.5;"/>
    </g>
    <g id="line2d_42"/>
    <g id="text_21">
     <!-- Piso 3 -->
     <defs>
      <path d="M 40.578125 39.3125 
Q 47.65625 37.796875 51.625 33 
Q 55.609375 28.21875 55.609375 21.1875 
Q 55.609375 10.40625 48.1875 4.484375 
Q 40.765625 -1.421875 27.09375 -1.421875 
Q 22.515625 -1.421875 17.65625 -0.515625 
Q 12.796875 0.390625 7.625 2.203125 
L 7.625 11.71875 
Q 11.71875 9.328125 16.59375 8.109375 
Q 21.484375 6.890625 26.8125 6.890625 
Q 36.078125 6.890625 40.9375 10.546875 
Q 45.796875 14.203125 45.796875 21.1875 
Q 45.796875 27.640625 41.28125 31.265625 
Q 36.765625 34.90625 28.71875 34.90625 
L 20.21875 34.90625 
L 20.21875 43.015625 
L 29.109375 43.015625 
Q 36.375 43.015625 40.234375 45.921875 
Q 44.09375 48.828125 44.09375 54.296875 
Q 44.09375 59.90625 40.109375 62.90625 
Q 36.140625 65.921875 28.71875 65.921875 
Q 24.65625 65.921875 20.015625 65.03125 
Q 15.375 64.15625 9.8125 62.3125 
L 9.8125 71.09375 
Q 15.4375 72.65625 20.34375 73.4375 
Q 25.25 74.21875 29.59375 74.21875 
Q 40.828125 74.21875 47.359375 69.109375 
Q 53.90625 64.015625 53.90625 55.328125 
Q 53.90625 49.265625 50.4375 45.09375 
Q 46.96875 40.921875 40.578125 39.3125 
z
" id="DejaVuSans-51"/>
     </defs>
     <g transform="translate(94.6 87.426688)scale(0.1 -0.1)">
      <use xlink:href="#DejaVuSans-80"/>
      <use x="60.271484" xlink:href="#DejaVuSans-105"/>
      <use x="88.054688" xlink:href="#DejaVuSans-115"/>
      <use x="140.154297" xlink:href="#DejaVuSans-111"/>
      <use x="201.335938" xlink:href="#DejaVuSans-32"/>
      <use x="233.123047" xlink:href="#DejaVuSans-51"/>
     </g>
    </g>
    <g id="line2d_43">
     <path d="M 66.6 98.604813 
L 86.6 98.604813 
" style="fill:none;stroke:#d62728;stroke-linecap:square;stroke-width:1.5;"/>
    </g>
    <g id="line2d_44"/>
    <g id="text_22">
     <!-- Piso 4 -->
     <g transform="translate(94.6 102.104813)scale(0.1 -0.1)">
      <use xlink:href="#DejaVuSans-80"/>
      <use x="60.271484" xlink:href="#DejaVuSans-105"/>
      <use x="88.054688" xlink:href="#DejaVuSans-115"/>
      <use x="140.154297" xlink:href="#DejaVuSans-111"/>
      <use x="201.335938" xlink:href="#DejaVuSans-32"/>
      <use x="233.123047" xlink:href="#DejaVuSans-52"/>
     </g>
    </g>
    <g id="line2d_45">
     <path d="M 66.6 113.282938 
L 86.6 113.282938 
" style="fill:none;stroke:#9467bd;stroke-linecap:square;stroke-width:1.5;"/>
    </g>
    <g id="line2d_46"/>
    <g id="text_23">
     <!-- Piso 5 -->
     <g transform="translate(94.6 116.782938)scale(0.1 -0.1)">
      <use xlink:href="#DejaVuSans-80"/>
      <use x="60.271484" xlink:href="#DejaVuSans-105"/>
      <use x="88.054688" xlink:href="#DejaVuSans-115"/>
      <use x="140.154297" xlink:href="#DejaVuSans-111"/>
      <use x="201.335938" xlink:href="#DejaVuSans-32"/>
      <use x="233.123047" xlink:href="#DejaVuSans-53"/>
     </g>
    </g>
    <g id="line2d_47">
     <path d="M 66.6 127.961063 
L 86.6 127.961063 
" style="fill:none;stroke:#8c564b;stroke-linecap:square;stroke-width:1.5;"/>
    </g>
    <g id="line2d_48"/>
    <g id="text_24">
     <!-- Piso 6 -->
     <g transform="translate(94.6 131.461063)scale(0.1 -0.1)">
      <use xlink:href="#DejaVuSans-80"/>
      <use x="60.271484" xlink:href="#DejaVuSans-105"/>
      <use x="88.054688" xlink:href="#DejaVuSans-115"/>
      <use x="140.154297" xlink:href="#DejaVuSans-111"/>
      <use x="201.335938" xlink:href="#DejaVuSans-32"/>
      <use x="233.123047" xlink:href="#DejaVuSans-54"/>
     </g>
    </g>
   </g>
  </g>
 </g>
 <defs>
  <clipPath id="p6fe52c182c">
   <rect height="266.112" width="357.12" x="57.6" y="41.472"/>
  </clipPath>
 </defs>
</svg>
